# Blender 3.6.5
# www.blender.org
mtllib sphere.mtl
o Sphere_Sphere
v 0.000000 0.500000 -2.545584
v 1.841985 -0.838265 -1.138423
v -0.703561 -1.665376 -1.138423
v -2.276834 0.500000 -1.138423
v -0.703561 2.665376 -1.138424
v 1.841985 1.838264 -1.138424
v 0.703561 -1.665376 1.138424
v -1.841985 -0.838265 1.138424
v -1.841985 1.838265 1.138423
v 0.703561 2.665376 1.138423
v 2.276834 0.500000 1.138423
v 0.000000 0.500000 2.545584
v 1.082695 -0.286615 -2.165412
v -0.413544 -0.772780 -2.165412
v 0.669155 -1.559407 -1.338309
v 1.082695 1.286615 -2.165412
v 2.165396 0.500000 -1.338305
v -1.338289 0.500000 -2.165406
v -1.751844 -0.772784 -1.338306
v -0.413544 1.772780 -2.165412
v -1.751844 1.772784 -1.338306
v 0.669155 2.559407 -1.338310
v 2.420998 1.286618 -0.000000
v 2.420998 -0.286618 0.000000
v 1.496258 -1.559420 0.000000
v 0.000000 -2.045584 0.000000
v -1.496258 -1.559420 0.000000
v -2.420998 -0.286618 0.000000
v -2.420998 1.286618 -0.000000
v -1.496258 2.559420 -0.000000
v 0.000000 3.045584 -0.000000
v 1.496258 2.559420 -0.000000
v 1.751844 -0.772784 1.338306
v -0.669155 -1.559407 1.338310
v -2.165396 0.500000 1.338305
v -0.669155 2.559407 1.338309
v 1.751844 1.772784 1.338306
v 1.338289 0.500000 2.165406
v 0.413544 -0.772780 2.165412
v -1.082695 -0.286614 2.165412
v -1.082695 1.286615 2.165412
v 0.413544 1.772780 2.165412
v 1.276288 2.287111 1.287371
v 2.094042 1.161573 1.287364
v 0.580657 2.287108 1.717290
v 0.214953 1.161570 2.448698
v 1.879084 0.500000 1.717278
v 0.695621 0.500000 2.448696
v 1.138412 1.838283 1.842014
v 0.920993 1.169140 2.276845
v 1.624578 1.169142 1.842008
v -1.305256 2.266063 1.287372
v 0.017884 2.695985 1.287372
v -1.520209 1.604483 1.717289
v -0.562767 0.908869 2.448698
v -0.921001 1.996242 1.842014
v -0.351793 1.582687 2.276846
v -0.134382 2.251834 1.842015
v -2.082980 -0.195611 1.287369
v -2.082980 1.195611 1.287368
v -1.520209 -0.604483 1.717289
v -0.562767 0.091131 2.448698
v -1.707621 0.086453 1.842012
v -1.138410 0.500000 2.276845
v -1.707621 0.913548 1.842012
v 0.017884 -1.695985 1.287373
v -1.305256 -1.266063 1.287372
v 0.580657 -1.287107 1.717290
v 0.214953 -0.161570 2.448698
v -0.134382 -1.251834 1.842015
v -0.351793 -0.582687 2.276847
v -0.921001 -0.996241 1.842015
v 1.276288 -1.287111 1.287372
v 2.094042 -0.161573 1.287364
v 1.624578 -0.169142 1.842008
v 0.920993 -0.169140 2.276845
v 1.138412 -0.838283 1.842014
v 1.735175 2.266073 -0.591738
v 1.143438 2.695995 0.591738
v 2.215842 1.604486 -0.591738
v 2.441859 0.908871 0.591734
v 2.059425 1.996252 -0.000000
v 2.193795 1.582693 0.703590
v 1.707630 2.251845 0.703589
v -1.143438 2.695995 -0.591738
v -1.735175 2.266073 0.591738
v -0.365702 2.948695 -0.591738
v 0.365702 2.948695 0.591737
v -0.786629 2.920994 -0.000000
v -0.351796 2.920991 0.703592
v -1.138426 2.665397 0.703591
v -2.441859 0.091129 -0.591735
v -2.215842 -0.604486 0.591738
v -2.441859 0.908871 -0.591735
v -2.215842 1.604486 0.591737
v -2.545584 0.500000 -0.000000
v -2.411211 0.913550 0.703589
v -2.411211 0.086450 0.703589
v -0.365702 -1.948695 -0.591738
v 0.365702 -1.948695 0.591738
v -1.143438 -1.695995 -0.591738
v -1.735175 -1.266073 0.591738
v -0.786629 -1.920994 0.000000
v -1.138426 -1.665397 0.703591
v -0.351796 -1.920991 0.703592
v 2.215842 -0.604486 -0.591737
v 2.441859 0.091129 0.591735
v 1.143438 -1.695995 0.591738
v 1.735175 -1.266073 -0.591738
v 2.059425 -0.996252 0.000000
v 1.707630 -1.251845 0.703590
v 2.193795 -0.582693 0.703590
v -0.017884 2.695985 -1.287373
v 1.305256 2.266063 -1.287372
v 0.351796 2.920991 -0.703592
v 0.786629 2.920994 -0.000000
v 1.138426 2.665397 -0.703592
v -2.094042 1.161573 -1.287364
v -1.276288 2.287111 -1.287372
v -2.193795 1.582693 -0.703590
v -2.059425 1.996252 -0.000000
v -1.707630 2.251845 -0.703590
v -1.276288 -1.287111 -1.287371
v -2.094042 -0.161573 -1.287364
v -1.707630 -1.251845 -0.703590
v -2.059425 -0.996252 0.000000
v -2.193795 -0.582693 -0.703590
v -0.017884 -1.695985 -1.287372
v 1.305256 -1.266063 -1.287372
v 1.138426 -1.665397 -0.703591
v 0.786629 -1.920994 0.000000
v 0.351796 -1.920991 -0.703592
v 2.082980 1.195611 -1.287369
v 2.082980 -0.195611 -1.287369
v 2.411211 0.913550 -0.703589
v 2.545584 0.500000 -0.000000
v 2.411211 0.086450 -0.703589
v -0.580657 2.287107 -1.717290
v -0.214953 1.161570 -2.448698
v 1.520209 1.604483 -1.717289
v 0.562767 0.908869 -2.448698
v 0.351793 1.582687 -2.276847
v 0.921001 1.996241 -1.842015
v 0.134382 2.251834 -1.842015
v -1.879084 0.500000 -1.717278
v -0.695621 0.500000 -2.448696
v -0.920993 1.169140 -2.276845
v -1.138412 1.838283 -1.842014
v -1.624578 1.169142 -1.842009
v -0.580657 -1.287108 -1.717290
v -0.214953 -0.161570 -2.448698
v -0.920993 -0.169140 -2.276845
v -1.624578 -0.169142 -1.842008
v -1.138412 -0.838283 -1.842014
v 0.562767 0.091131 -2.448698
v 1.520209 -0.604483 -1.717289
v 1.138410 0.500000 -2.276845
v 1.707621 0.913547 -1.842012
v 1.707621 0.086452 -1.842012
v 0.351793 -0.582687 -2.276847
v 0.134382 -1.251834 -1.842015
v 0.921001 -0.996242 -1.842014
vn 0.1410 -0.4341 -0.8897
vn 0.3525 -0.5878 -0.7282
vn 0.0603 -0.6827 -0.7282
vn -0.4565 -0.0000 0.8897
vn -0.6679 0.1536 0.7282
vn -0.6679 -0.1536 0.7282
vn -0.3693 -0.2683 -0.8897
vn -0.4501 -0.5168 -0.7282
vn -0.6306 -0.2683 -0.7282
vn -0.3693 0.2683 -0.8897
vn -0.6306 0.2683 -0.7282
vn -0.4501 0.5168 -0.7282
vn -0.1410 -0.4341 0.8897
vn -0.3525 -0.5878 0.7282
vn -0.0603 -0.6827 0.7282
vn -0.9500 -0.1536 0.2717
vn -0.9500 0.1536 0.2717
vn -0.9999 -0.0000 0.0104
vn 0.4397 -0.8561 -0.2717
vn 0.3090 -0.9510 -0.0104
vn 0.1475 -0.9510 -0.2717
vn -0.6783 -0.6827 -0.2717
vn -0.8090 -0.5877 -0.0104
vn -0.8589 -0.4341 -0.2717
vn -0.8589 0.4341 -0.2717
vn -0.8090 0.5877 -0.0104
vn -0.6783 0.6827 -0.2717
vn -0.1475 -0.9510 0.2717
vn -0.4397 -0.8561 0.2717
vn -0.3090 -0.9510 0.0104
vn -0.2285 -0.7034 -0.6731
vn -0.4998 -0.7034 -0.5054
vn -0.2713 -0.0000 -0.9625
vn -0.0838 -0.2580 -0.9625
vn -0.8234 -0.2580 -0.5054
vn -0.7396 -0.0000 -0.6731
vn -0.6307 -0.2683 -0.7282
vn 0.5983 -0.4347 -0.6731
vn 0.5145 -0.6927 -0.5054
vn 0.3525 -0.5877 -0.7282
vn 0.2195 -0.1595 -0.9625
vn 0.1411 -0.4342 -0.8897
vn -0.0090 -0.8628 -0.5054
vn -0.5983 -0.4347 0.6731
vn -0.8178 -0.2752 0.5054
vn 0.2195 -0.1594 -0.9625
vn 0.2195 0.1594 -0.9625
vn 0.4565 -0.0000 -0.8897
vn -0.8178 0.2752 0.5054
vn -0.5983 0.4347 0.6731
vn 0.2285 -0.7034 0.6731
vn 0.0090 -0.8628 0.5054
vn 0.2195 0.1595 -0.9625
vn -0.0838 0.2580 -0.9625
vn 0.1411 0.4342 -0.8897
vn -0.5145 -0.6927 0.5054
vn -0.3525 -0.5877 0.7282
vn -0.8234 0.2580 -0.5054
vn -0.6307 0.2683 -0.7282
vn -0.4998 0.7034 -0.5054
vn -0.2285 0.7034 -0.6731
vn -0.8696 -0.4347 0.2341
vn -0.6822 -0.6927 0.2341
vn -0.9590 -0.1594 -0.2341
vn -0.4480 -0.8628 -0.2341
vn -0.4998 -0.7033 -0.5055
vn -0.1447 0.9614 -0.2341
vn -0.4480 0.8628 -0.2341
vn -0.3090 0.9510 0.0104
vn -0.1447 -0.9614 -0.2341
vn -0.6822 0.6927 0.2341
vn -0.5145 0.6927 0.5054
vn -0.4397 0.8561 0.2717
vn -0.9590 0.1594 -0.2341
vn -0.8696 0.4347 0.2341
vn 0.1447 -0.9614 0.2341
vn -0.4998 0.7033 -0.5055
vn 0.6822 -0.6927 -0.2341
vn 0.4480 -0.8628 0.2341
vn -0.0090 0.8628 -0.5054
vn 0.0603 0.6827 -0.7282
vn 0.4253 -0.3090 -0.8507
vn 0.2629 -0.8090 -0.5257
vn -0.7236 0.5257 0.4472
vn -0.1625 -0.5000 -0.8507
vn -0.2285 -0.7033 -0.6731
vn -0.2764 -0.8507 -0.4472
vn -0.1624 -0.5000 -0.8507
vn -0.0839 -0.2580 -0.9625
vn 0.1411 -0.4341 -0.8897
vn -0.0000 -0.0000 -1.0000
vn 0.6679 -0.1536 -0.7282
vn -0.8507 -0.0000 0.5257
vn -0.4253 -0.3090 0.8507
vn -0.7236 -0.5257 0.4472
vn 0.4253 0.3090 -0.8507
vn 0.2194 -0.1595 -0.9625
vn -0.6882 -0.5000 -0.5257
vn -0.8234 -0.2580 -0.5055
vn -0.5257 -0.0000 -0.8507
vn -0.7395 -0.0000 -0.6731
vn -0.8944 -0.0000 -0.4472
vn -0.6882 0.5000 -0.5257
vn -0.8234 0.2580 -0.5055
vn -0.1624 0.5000 -0.8507
vn -0.2285 0.7033 -0.6731
vn -0.2764 0.8507 -0.4472
vn -0.1624 0.5000 -0.8506
vn -0.0839 0.2580 -0.9625
vn -0.1625 0.5000 -0.8507
vn -0.2629 -0.8090 0.5257
vn 0.1411 0.4341 -0.8897
vn -0.9511 0.3090 -0.0000
vn -0.9590 0.1595 -0.2341
vn -0.9511 -0.3090 -0.0000
vn -0.9590 -0.1595 -0.2341
vn 0.2628 -0.8090 -0.5257
vn -0.0000 -1.0000 -0.0000
vn 0.5878 -0.8090 -0.0000
vn 0.2764 -0.8506 0.4472
vn 0.6821 -0.6927 -0.2341
vn -0.5878 -0.8090 -0.0000
vn -0.6821 -0.6927 0.2341
vn -0.8090 -0.5878 -0.0104
vn -0.2764 -0.8506 -0.4472
vn -0.5878 0.8090 -0.0000
vn -0.2764 0.8506 -0.4472
vn -0.8090 0.5878 -0.0104
vn -0.6821 0.6927 0.2341
vn -0.2628 -0.8090 0.5257
vn 0.2764 -0.8507 0.4472
vn -0.1411 -0.4341 0.8897
vn -0.2195 -0.1595 0.9625
vn -0.4253 0.3090 0.8507
vn -0.2194 -0.1595 0.9625
vn -0.3693 -0.2683 -0.8898
vn -0.4501 -0.5169 -0.7282
vn 0.1410 -0.4342 -0.8897
vn -0.8506 -0.0000 0.5257
vn 0.1410 0.4342 -0.8897
vn -0.3693 0.2683 -0.8898
vn -0.4501 0.5169 -0.7282
vt 0.000000 0.000000
s 0
f 160/1/1 162/1/2 161/1/3
f 157/1/4 159/1/5 158/1/6
f 152/1/7 154/1/8 153/1/9
f 147/1/10 149/1/11 148/1/12
f 142/1/13 143/1/14 144/1/15
f 135/1/16 137/1/17 136/1/18
f 130/1/19 131/1/20 132/1/21
f 125/1/22 126/1/23 127/1/24
f 120/1/25 121/1/26 122/1/27
f 115/1/28 117/1/29 116/1/30
f 110/1/26 111/1/27 112/1/25
f 103/1/30 105/1/28 104/1/29
f 96/1/18 98/1/16 97/1/17
f 89/1/20 90/1/21 91/1/19
f 82/1/23 83/1/24 84/1/22
f 75/1/11 77/1/12 76/1/10
f 70/1/15 71/1/13 72/1/14
f 63/1/6 64/1/4 65/1/5
f 56/1/2 58/1/3 57/1/1
f 49/1/8 51/1/9 50/1/7
f 45/1/31 43/1/32 49/1/8
f 48/1/33 46/1/34 50/1/7
f 44/1/35 47/1/36 51/1/37
f 54/1/38 52/1/39 56/1/40
f 46/1/34 55/1/41 57/1/42
f 53/1/43 45/1/31 58/1/3
f 61/1/44 63/1/6 59/1/45
f 55/1/46 62/1/47 64/1/48
f 60/1/49 65/1/5 54/1/50
f 68/1/51 70/1/15 66/1/52
f 62/1/53 69/1/54 71/1/55
f 67/1/56 72/1/57 61/1/44
f 47/1/36 74/1/58 75/1/59
f 69/1/54 48/1/33 76/1/10
f 73/1/60 68/1/61 77/1/12
f 80/1/62 82/1/23 78/1/63
f 44/1/35 83/1/24 81/1/64
f 79/1/65 84/1/22 43/1/66
f 87/1/67 85/1/68 89/1/69
f 53/1/43 90/1/21 88/1/70
f 86/1/71 52/1/72 91/1/73
f 94/1/74 92/1/64 96/1/18
f 60/1/49 95/1/75 97/1/17
f 93/1/62 59/1/45 98/1/16
f 101/1/65 99/1/70 103/1/30
f 67/1/56 102/1/63 104/1/29
f 100/1/76 66/1/52 105/1/28
f 109/1/71 110/1/26 106/1/75
f 73/1/77 111/1/27 108/1/68
f 107/1/74 112/1/25 74/1/58
f 87/1/76 113/1/52 115/1/28
f 79/1/65 88/1/70 116/1/30
f 114/1/56 78/1/63 117/1/29
f 94/1/74 120/1/25 118/1/58
f 86/1/71 121/1/26 95/1/75
f 119/1/77 122/1/27 85/1/68
f 101/1/65 125/1/22 123/1/66
f 93/1/62 126/1/23 102/1/63
f 124/1/35 127/1/24 92/1/64
f 109/1/78 130/1/19 129/1/39
f 100/1/76 131/1/20 108/1/79
f 128/1/43 132/1/21 99/1/70
f 80/1/62 133/1/45 135/1/16
f 107/1/74 81/1/64 136/1/18
f 134/1/49 106/1/75 137/1/17
f 141/1/53 139/1/54 142/1/55
f 114/1/56 143/1/57 140/1/44
f 138/1/61 113/1/80 144/1/81
f 139/1/54 146/1/33 147/1/10
f 119/1/60 138/1/61 148/1/12
f 145/1/36 118/1/58 149/1/59
f 146/1/33 151/1/34 152/1/7
f 124/1/35 145/1/36 153/1/37
f 150/1/31 123/1/32 154/1/8
f 141/1/47 157/1/48 155/1/46
f 133/1/45 140/1/44 158/1/6
f 156/1/50 134/1/49 159/1/5
f 151/1/34 155/1/41 160/1/42
f 128/1/43 150/1/31 161/1/3
f 156/1/38 129/1/39 162/1/40
f 13/1/82 156/1/38 162/1/40
f 15/1/83 162/1/2 129/1/39
f 2/1/84 156/1/50 129/1/72
f 15/1/83 128/1/43 161/1/3
f 14/1/85 161/1/3 150/1/86
f 3/1/87 150/1/31 128/1/43
f 14/1/88 151/1/89 160/1/90
f 13/1/82 160/1/90 155/1/41
f 1/1/91 155/1/41 151/1/34
f 13/1/82 159/1/92 156/1/38
f 17/1/93 159/1/5 134/1/49
f 2/1/84 134/1/49 156/1/50
f 17/1/93 133/1/45 158/1/6
f 16/1/94 158/1/6 140/1/44
f 6/1/95 140/1/44 133/1/45
f 16/1/96 157/1/48 141/1/53
f 13/1/82 155/1/97 157/1/48
f 1/1/91 141/1/53 155/1/41
f 14/1/88 150/1/86 154/1/8
f 19/1/98 154/1/8 123/1/66
f 3/1/87 123/1/32 150/1/31
f 19/1/98 124/1/99 153/1/37
f 18/1/100 153/1/9 145/1/101
f 4/1/102 145/1/36 124/1/35
f 18/1/100 146/1/33 152/1/7
f 14/1/88 152/1/7 151/1/89
f 1/1/91 151/1/34 146/1/33
f 18/1/100 145/1/101 149/1/11
f 21/1/103 149/1/59 118/1/104
f 4/1/102 118/1/58 145/1/36
f 21/1/103 119/1/77 148/1/12
f 20/1/105 148/1/12 138/1/106
f 5/1/107 138/1/61 119/1/60
f 20/1/108 139/1/109 147/1/10
f 18/1/100 147/1/10 146/1/33
f 1/1/91 146/1/33 139/1/54
f 20/1/110 138/1/106 144/1/81
f 22/1/111 113/1/52 144/1/15
f 5/1/107 113/1/80 138/1/61
f 22/1/111 143/1/14 114/1/56
f 16/1/94 140/1/44 143/1/57
f 6/1/95 114/1/56 140/1/44
f 16/1/96 141/1/53 142/1/112
f 20/1/105 142/1/112 139/1/109
f 1/1/91 139/1/54 141/1/53
f 17/1/93 134/1/49 137/1/17
f 24/1/113 137/1/17 106/1/75
f 2/1/84 106/1/75 134/1/49
f 24/1/113 107/1/114 136/1/18
f 23/1/115 136/1/18 81/1/116
f 11/1/102 81/1/116 107/1/114
f 23/1/115 80/1/62 135/1/16
f 17/1/93 135/1/16 133/1/45
f 6/1/95 133/1/45 80/1/62
f 15/1/117 132/1/21 128/1/43
f 26/1/118 99/1/70 132/1/21
f 3/1/87 128/1/43 99/1/70
f 26/1/118 131/1/20 100/1/76
f 25/1/119 108/1/79 131/1/20
f 7/1/120 100/1/76 108/1/79
f 25/1/119 130/1/19 109/1/121
f 15/1/117 129/1/39 130/1/19
f 2/1/84 129/1/72 109/1/71
f 19/1/98 127/1/24 124/1/35
f 28/1/115 92/1/116 127/1/24
f 4/1/102 124/1/35 92/1/116
f 28/1/115 126/1/23 93/1/62
f 27/1/122 102/1/123 126/1/124
f 8/1/95 93/1/62 102/1/63
f 27/1/122 125/1/22 101/1/65
f 19/1/98 123/1/32 125/1/22
f 3/1/125 101/1/65 123/1/32
f 21/1/103 122/1/27 119/1/60
f 30/1/126 85/1/68 122/1/27
f 5/1/127 119/1/60 85/1/68
f 30/1/126 121/1/128 86/1/129
f 29/1/113 95/1/75 121/1/26
f 9/1/84 86/1/71 95/1/75
f 29/1/113 120/1/25 94/1/114
f 21/1/103 118/1/58 120/1/25
f 4/1/102 94/1/114 118/1/58
f 22/1/130 114/1/56 117/1/29
f 32/1/122 117/1/29 78/1/123
f 6/1/95 78/1/63 114/1/56
f 32/1/122 79/1/65 116/1/30
f 31/1/118 116/1/30 88/1/70
f 10/1/125 88/1/70 79/1/65
f 31/1/118 87/1/76 115/1/28
f 22/1/130 115/1/28 113/1/52
f 5/1/131 113/1/52 87/1/76
f 24/1/113 112/1/25 107/1/114
f 33/1/103 74/1/58 112/1/25
f 11/1/102 107/1/114 74/1/58
f 33/1/103 111/1/27 73/1/60
f 25/1/126 108/1/68 111/1/27
f 7/1/127 73/1/60 108/1/68
f 25/1/126 110/1/128 109/1/129
f 24/1/113 106/1/75 110/1/26
f 2/1/84 109/1/71 106/1/75
f 26/1/118 100/1/76 105/1/28
f 34/1/130 105/1/28 66/1/52
f 7/1/131 66/1/52 100/1/76
f 34/1/130 67/1/56 104/1/29
f 27/1/122 104/1/29 102/1/123
f 8/1/95 102/1/63 67/1/56
f 27/1/122 101/1/65 103/1/30
f 26/1/118 103/1/30 99/1/70
f 3/1/125 99/1/70 101/1/65
f 28/1/115 93/1/62 98/1/16
f 35/1/93 98/1/16 59/1/45
f 8/1/95 59/1/45 93/1/62
f 35/1/93 60/1/49 97/1/17
f 29/1/113 97/1/17 95/1/75
f 9/1/84 95/1/75 60/1/49
f 29/1/113 94/1/114 96/1/18
f 28/1/115 96/1/18 92/1/116
f 4/1/102 92/1/116 94/1/114
f 30/1/126 86/1/129 91/1/73
f 36/1/117 52/1/39 91/1/19
f 9/1/84 52/1/72 86/1/71
f 36/1/117 90/1/21 53/1/43
f 31/1/118 88/1/70 90/1/21
f 10/1/87 53/1/43 88/1/70
f 31/1/118 89/1/20 87/1/76
f 30/1/126 89/1/69 85/1/68
f 5/1/127 85/1/68 87/1/67
f 32/1/122 84/1/22 79/1/65
f 37/1/98 43/1/32 84/1/22
f 10/1/125 79/1/65 43/1/32
f 37/1/98 83/1/24 44/1/35
f 23/1/115 81/1/116 83/1/24
f 11/1/102 44/1/35 81/1/116
f 23/1/115 82/1/23 80/1/62
f 32/1/122 78/1/123 82/1/124
f 6/1/95 80/1/62 78/1/63
f 33/1/103 73/1/77 77/1/12
f 39/1/105 77/1/12 68/1/106
f 7/1/107 68/1/61 73/1/60
f 39/1/105 69/1/109 76/1/10
f 38/1/100 76/1/10 48/1/33
f 12/1/91 48/1/33 69/1/54
f 38/1/100 47/1/101 75/1/11
f 33/1/103 75/1/59 74/1/104
f 11/1/102 74/1/58 47/1/36
f 34/1/111 72/1/14 67/1/56
f 40/1/94 61/1/44 72/1/57
f 8/1/95 67/1/56 61/1/44
f 40/1/94 71/1/132 62/1/133
f 39/1/105 71/1/112 69/1/109
f 12/1/91 69/1/54 62/1/53
f 39/1/110 68/1/106 70/1/81
f 34/1/111 66/1/52 70/1/15
f 7/1/131 68/1/51 66/1/52
f 35/1/93 65/1/5 60/1/49
f 41/1/134 54/1/50 65/1/5
f 9/1/84 60/1/49 54/1/50
f 41/1/82 55/1/41 64/1/48
f 40/1/94 62/1/135 64/1/4
f 12/1/91 62/1/53 55/1/41
f 40/1/94 63/1/6 61/1/44
f 35/1/93 59/1/45 63/1/6
f 8/1/95 61/1/44 59/1/45
f 36/1/83 53/1/43 58/1/3
f 42/1/85 58/1/3 45/1/86
f 10/1/87 45/1/31 53/1/43
f 42/1/88 46/1/89 57/1/90
f 41/1/82 57/1/90 55/1/41
f 12/1/91 55/1/41 46/1/34
f 41/1/82 54/1/38 56/1/40
f 36/1/83 56/1/2 52/1/39
f 9/1/84 54/1/50 52/1/72
f 37/1/98 44/1/35 51/1/37
f 38/1/100 51/1/9 47/1/101
f 11/1/102 47/1/36 44/1/35
f 38/1/100 48/1/33 50/1/7
f 42/1/88 50/1/136 46/1/89
f 12/1/91 46/1/34 48/1/33
f 42/1/88 45/1/86 49/1/8
f 37/1/98 49/1/8 43/1/66
f 10/1/87 43/1/32 45/1/31
f 42/1/85 49/1/137 50/1/7
f 38/1/100 50/1/136 51/1/9
f 37/1/98 51/1/9 49/1/137
f 41/1/82 56/1/40 57/1/1
f 42/1/85 57/1/138 58/1/3
f 36/1/83 58/1/3 56/1/2
f 40/1/94 64/1/4 63/1/6
f 41/1/134 65/1/5 64/1/4
f 35/1/139 63/1/6 65/1/5
f 39/1/110 70/1/81 71/1/140
f 40/1/94 72/1/57 71/1/13
f 34/1/111 70/1/15 72/1/14
f 38/1/100 75/1/11 76/1/141
f 39/1/110 76/1/10 77/1/142
f 33/1/103 77/1/142 75/1/11
f 23/1/115 83/1/24 82/1/124
f 37/1/98 84/1/22 83/1/24
f 32/1/122 82/1/23 84/1/22
f 31/1/118 90/1/21 89/1/20
f 36/1/83 91/1/19 90/1/21
f 30/1/126 91/1/73 89/1/69
f 29/1/113 96/1/18 97/1/17
f 35/1/139 97/1/17 98/1/16
f 28/1/115 98/1/16 96/1/18
f 27/1/122 103/1/30 104/1/29
f 34/1/111 104/1/29 105/1/28
f 26/1/118 105/1/28 103/1/30
f 25/1/126 111/1/27 110/1/26
f 33/1/103 112/1/25 111/1/27
f 24/1/113 110/1/128 112/1/25
f 31/1/118 115/1/28 116/1/30
f 32/1/122 116/1/30 117/1/29
f 22/1/111 117/1/29 115/1/28
f 29/1/113 121/1/128 120/1/25
f 30/1/126 122/1/27 121/1/26
f 21/1/103 120/1/25 122/1/27
f 27/1/122 126/1/23 125/1/22
f 28/1/115 127/1/24 126/1/124
f 19/1/98 125/1/22 127/1/24
f 25/1/119 131/1/20 130/1/19
f 26/1/118 132/1/21 131/1/20
f 15/1/83 130/1/19 132/1/21
f 23/1/115 135/1/16 136/1/18
f 24/1/113 136/1/18 137/1/17
f 17/1/139 137/1/17 135/1/16
f 16/1/94 143/1/57 142/1/13
f 22/1/111 144/1/15 143/1/14
f 20/1/110 144/1/81 142/1/140
f 20/1/110 147/1/10 148/1/12
f 21/1/103 148/1/12 149/1/11
f 18/1/100 149/1/11 147/1/141
f 18/1/100 152/1/136 153/1/9
f 19/1/98 153/1/9 154/1/137
f 14/1/85 154/1/8 152/1/7
f 16/1/94 157/1/4 158/1/6
f 17/1/139 158/1/6 159/1/5
f 13/1/82 157/1/48 159/1/92
f 14/1/85 160/1/138 161/1/3
f 15/1/83 161/1/3 162/1/2
f 13/1/82 162/1/40 160/1/1
